<svg xmlns="http://www.w3.org/2000/svg" xmlns:xlink="http://www.w3.org/1999/xlink" width="500" zoomAndPan="magnify" viewBox="0 0 375 374.999991" height="500" preserveAspectRatio="xMidYMid meet" version="1.0"><defs><clipPath id="126f7d686c"><path d="M 68 97 L 239 97 L 239 332.660156 L 68 332.660156 Z M 68 97 " clip-rule="nonzero"/></clipPath><clipPath id="ac18ca34c9"><path d="M 4.707031 42.410156 L 82 42.410156 L 82 120 L 4.707031 120 Z M 4.707031 42.410156 " clip-rule="nonzero"/></clipPath><clipPath id="bf8650757a"><path d="M 309 101 L 369.957031 101 L 369.957031 162 L 309 162 Z M 309 101 " clip-rule="nonzero"/></clipPath></defs><g clip-path="url(#126f7d686c)"><path fill="#14274e" d="M 234.058594 156.359375 C 234.101562 156.488281 234.144531 156.597656 234.171875 156.710938 C 239.410156 172.722656 239.992188 191.230469 233.851562 211.285156 C 233.851562 211.285156 233.78125 210.769531 233.628906 209.835938 C 232.636719 203.839844 228.027344 180.53125 213.511719 163.308594 C 201.027344 148.464844 181.203125 138.144531 150.050781 147.265625 C 119.597656 156.179688 110.222656 175.804688 112.074219 196.585938 C 114.636719 225.597656 139.089844 256.894531 158.621094 264.566406 C 160.710938 265.375 162.714844 266.449219 164.652344 267.734375 C 182.875 279.796875 195.023438 310.929688 201.597656 332.757812 C 196.933594 322.921875 188.628906 311.109375 173.890625 299.589844 C 158.71875 287.746094 129.964844 272.613281 106.347656 252.082031 C 106.335938 252.070312 106.308594 252.070312 106.308594 252.054688 C 92.238281 239.835938 80.019531 225.695312 73.609375 209.195312 C 67.496094 193.488281 66.6875 175.636719 74.628906 155.273438 C 74.640625 155.257812 74.628906 155.246094 74.640625 155.230469 C 76.605469 150.195312 79.097656 145.007812 82.179688 139.664062 C 90.441406 125.3125 100.875 114.949219 112.394531 108.074219 C 140.96875 91.003906 176.273438 95.4375 202.210938 113.875 C 216.660156 124.113281 228.207031 138.71875 234.058594 156.359375 Z M 234.058594 156.359375 " fill-opacity="1" fill-rule="nonzero"/></g><g clip-path="url(#ac18ca34c9)"><path fill="#14274e" d="M 81.871094 80.945312 C 81.871094 82.207031 81.808594 83.464844 81.6875 84.71875 C 81.5625 85.972656 81.378906 87.21875 81.132812 88.453125 C 80.886719 89.691406 80.582031 90.910156 80.214844 92.117188 C 79.851562 93.324219 79.425781 94.507812 78.945312 95.671875 C 78.464844 96.835938 77.925781 97.976562 77.332031 99.085938 C 76.738281 100.199219 76.09375 101.277344 75.394531 102.324219 C 74.695312 103.375 73.945312 104.382812 73.148438 105.359375 C 72.347656 106.332031 71.503906 107.265625 70.613281 108.15625 C 69.722656 109.046875 68.792969 109.894531 67.820312 110.691406 C 66.847656 111.492188 65.835938 112.242188 64.789062 112.941406 C 63.742188 113.644531 62.664062 114.289062 61.554688 114.882812 C 60.445312 115.476562 59.308594 116.015625 58.144531 116.5 C 56.980469 116.980469 55.796875 117.40625 54.59375 117.769531 C 53.386719 118.136719 52.167969 118.441406 50.933594 118.6875 C 49.699219 118.933594 48.457031 119.117188 47.203125 119.242188 C 45.949219 119.367188 44.695312 119.425781 43.433594 119.425781 C 42.175781 119.425781 40.921875 119.367188 39.667969 119.242188 C 38.414062 119.117188 37.171875 118.933594 35.9375 118.6875 C 34.703125 118.441406 33.480469 118.136719 32.277344 117.769531 C 31.074219 117.40625 29.890625 116.980469 28.726562 116.5 C 27.5625 116.015625 26.425781 115.476562 25.316406 114.882812 C 24.207031 114.289062 23.128906 113.644531 22.082031 112.941406 C 21.035156 112.242188 20.023438 111.492188 19.050781 110.691406 C 18.078125 109.894531 17.144531 109.046875 16.253906 108.15625 C 15.367188 107.265625 14.519531 106.332031 13.722656 105.359375 C 12.925781 104.382812 12.175781 103.375 11.476562 102.324219 C 10.777344 101.277344 10.128906 100.199219 9.535156 99.085938 C 8.941406 97.976562 8.40625 96.835938 7.921875 95.671875 C 7.441406 94.507812 7.019531 93.324219 6.652344 92.117188 C 6.289062 90.910156 5.980469 89.691406 5.738281 88.453125 C 5.492188 87.21875 5.304688 85.972656 5.183594 84.71875 C 5.058594 83.464844 4.996094 82.207031 4.996094 80.945312 C 4.996094 79.6875 5.058594 78.429688 5.183594 77.175781 C 5.304688 75.921875 5.492188 74.675781 5.738281 73.4375 C 5.980469 72.203125 6.289062 70.980469 6.652344 69.777344 C 7.019531 68.570312 7.441406 67.382812 7.921875 66.21875 C 8.40625 65.054688 8.941406 63.917969 9.535156 62.804688 C 10.128906 61.695312 10.777344 60.613281 11.476562 59.566406 C 12.175781 58.519531 12.925781 57.507812 13.722656 56.535156 C 14.519531 55.558594 15.367188 54.625 16.257812 53.734375 C 17.144531 52.84375 18.078125 52 19.050781 51.199219 C 20.023438 50.398438 21.035156 49.648438 22.082031 48.949219 C 23.128906 48.25 24.207031 47.601562 25.316406 47.007812 C 26.425781 46.414062 27.5625 45.875 28.726562 45.394531 C 29.890625 44.910156 31.074219 44.488281 32.277344 44.121094 C 33.480469 43.757812 34.703125 43.449219 35.9375 43.203125 C 37.171875 42.957031 38.414062 42.773438 39.667969 42.648438 C 40.921875 42.527344 42.175781 42.464844 43.433594 42.464844 C 44.695312 42.464844 45.949219 42.527344 47.203125 42.648438 C 48.457031 42.773438 49.699219 42.957031 50.933594 43.203125 C 52.167969 43.449219 53.386719 43.757812 54.59375 44.121094 C 55.796875 44.488281 56.980469 44.910156 58.144531 45.394531 C 59.308594 45.875 60.445312 46.414062 61.554688 47.007812 C 62.664062 47.601562 63.742188 48.25 64.789062 48.949219 C 65.835938 49.648438 66.847656 50.398438 67.820312 51.199219 C 68.792969 52 69.722656 52.84375 70.613281 53.734375 C 71.503906 54.625 72.347656 55.558594 73.148438 56.535156 C 73.945312 57.507812 74.695312 58.519531 75.394531 59.566406 C 76.09375 60.613281 76.738281 61.695312 77.332031 62.804688 C 77.925781 63.917969 78.464844 65.054688 78.945312 66.21875 C 79.425781 67.382812 79.851562 68.570312 80.214844 69.777344 C 80.582031 70.980469 80.886719 72.203125 81.132812 73.4375 C 81.378906 74.675781 81.5625 75.921875 81.6875 77.175781 C 81.808594 78.429688 81.871094 79.6875 81.871094 80.945312 Z M 81.871094 80.945312 " fill-opacity="1" fill-rule="nonzero"/></g><path fill="#394867" d="M 190.246094 190.589844 C 194.84375 176.765625 203.871094 165.328125 215.183594 157.296875 C 235.507812 142.859375 263.160156 139.386719 285.535156 152.75 C 294.550781 158.132812 302.726562 166.25 309.207031 177.492188 C 311.628906 181.675781 313.582031 185.75 315.113281 189.683594 C 315.125 189.695312 315.113281 189.710938 315.125 189.722656 C 321.339844 205.679688 320.714844 219.65625 315.921875 231.957031 C 310.90625 244.886719 301.335938 255.960938 290.316406 265.527344 C 290.316406 265.542969 290.300781 265.542969 290.285156 265.558594 C 271.800781 281.636719 249.257812 293.492188 237.390625 302.769531 C 225.839844 311.792969 219.332031 321.054688 215.683594 328.738281 C 220.839844 311.640625 230.339844 287.246094 244.621094 277.804688 C 246.136719 276.796875 247.710938 275.960938 249.34375 275.320312 C 264.640625 269.308594 283.792969 244.804688 285.800781 222.066406 C 287.25 205.792969 279.894531 190.421875 256.042969 183.433594 C 231.648438 176.277344 216.117188 184.367188 206.335938 196 C 194.96875 209.488281 191.34375 227.746094 190.578125 232.445312 C 190.453125 233.171875 190.398438 233.589844 190.398438 233.589844 C 185.589844 217.882812 186.050781 203.378906 190.148438 190.839844 C 190.175781 190.785156 190.21875 190.6875 190.246094 190.589844 Z M 190.246094 190.589844 " fill-opacity="1" fill-rule="nonzero"/><g clip-path="url(#bf8650757a)"><path fill="#394867" d="M 369.667969 131.519531 C 369.667969 132.507812 369.621094 133.492188 369.523438 134.472656 C 369.425781 135.457031 369.28125 136.433594 369.089844 137.402344 C 368.898438 138.367188 368.65625 139.324219 368.371094 140.269531 C 368.085938 141.214844 367.753906 142.144531 367.375 143.054688 C 367 143.964844 366.578125 144.859375 366.113281 145.726562 C 365.648438 146.597656 365.140625 147.445312 364.59375 148.265625 C 364.046875 149.085938 363.460938 149.878906 362.835938 150.640625 C 362.210938 151.40625 361.546875 152.136719 360.851562 152.832031 C 360.152344 153.53125 359.421875 154.191406 358.660156 154.820312 C 357.898438 155.445312 357.109375 156.03125 356.289062 156.582031 C 355.46875 157.128906 354.625 157.636719 353.753906 158.101562 C 352.882812 158.566406 351.996094 158.988281 351.082031 159.367188 C 350.171875 159.746094 349.246094 160.078125 348.300781 160.363281 C 347.359375 160.648438 346.402344 160.890625 345.4375 161.082031 C 344.46875 161.273438 343.496094 161.417969 342.511719 161.515625 C 341.53125 161.613281 340.546875 161.660156 339.5625 161.660156 C 338.578125 161.660156 337.59375 161.613281 336.613281 161.515625 C 335.628906 161.417969 334.65625 161.273438 333.6875 161.082031 C 332.722656 160.890625 331.765625 160.648438 330.824219 160.363281 C 329.878906 160.078125 328.953125 159.746094 328.042969 159.367188 C 327.128906 158.988281 326.238281 158.566406 325.371094 158.101562 C 324.5 157.636719 323.65625 157.128906 322.835938 156.582031 C 322.015625 156.03125 321.226562 155.445312 320.464844 154.820312 C 319.699219 154.191406 318.972656 153.53125 318.273438 152.832031 C 317.578125 152.136719 316.914062 151.40625 316.289062 150.640625 C 315.664062 149.878906 315.078125 149.085938 314.53125 148.265625 C 313.980469 147.445312 313.476562 146.597656 313.011719 145.726562 C 312.546875 144.859375 312.125 143.964844 311.746094 143.054688 C 311.371094 142.144531 311.039062 141.214844 310.753906 140.269531 C 310.464844 139.324219 310.226562 138.367188 310.035156 137.402344 C 309.84375 136.433594 309.699219 135.457031 309.601562 134.472656 C 309.503906 133.492188 309.457031 132.507812 309.457031 131.519531 C 309.457031 130.53125 309.503906 129.546875 309.601562 128.566406 C 309.699219 127.582031 309.84375 126.609375 310.035156 125.640625 C 310.226562 124.671875 310.464844 123.714844 310.753906 122.769531 C 311.039062 121.828125 311.371094 120.898438 311.746094 119.984375 C 312.125 119.074219 312.546875 118.183594 313.011719 117.3125 C 313.476562 116.441406 313.980469 115.597656 314.53125 114.773438 C 315.078125 113.953125 315.664062 113.164062 316.289062 112.398438 C 316.914062 111.636719 317.578125 110.90625 318.273438 110.207031 C 318.972656 109.507812 319.699219 108.847656 320.464844 108.222656 C 321.226562 107.59375 322.015625 107.007812 322.835938 106.460938 C 323.65625 105.910156 324.5 105.402344 325.371094 104.9375 C 326.238281 104.472656 327.128906 104.050781 328.042969 103.671875 C 328.953125 103.296875 329.878906 102.964844 330.824219 102.675781 C 331.765625 102.390625 332.722656 102.152344 333.6875 101.957031 C 334.65625 101.765625 335.628906 101.621094 336.613281 101.523438 C 337.59375 101.429688 338.578125 101.378906 339.5625 101.378906 C 340.546875 101.378906 341.53125 101.429688 342.511719 101.523438 C 343.496094 101.621094 344.46875 101.765625 345.4375 101.957031 C 346.402344 102.152344 347.359375 102.390625 348.300781 102.675781 C 349.246094 102.964844 350.171875 103.296875 351.082031 103.671875 C 351.996094 104.050781 352.882812 104.472656 353.753906 104.9375 C 354.625 105.402344 355.46875 105.910156 356.289062 106.460938 C 357.109375 107.007812 357.898438 107.59375 358.660156 108.222656 C 359.421875 108.847656 360.152344 109.507812 360.851562 110.207031 C 361.546875 110.90625 362.207031 111.636719 362.835938 112.398438 C 363.460938 113.164062 364.046875 113.953125 364.59375 114.773438 C 365.140625 115.597656 365.648438 116.441406 366.113281 117.3125 C 366.578125 118.183594 367 119.074219 367.375 119.984375 C 367.753906 120.898438 368.085938 121.828125 368.371094 122.769531 C 368.65625 123.714844 368.898438 124.671875 369.089844 125.640625 C 369.28125 126.609375 369.425781 127.582031 369.523438 128.566406 C 369.621094 129.546875 369.667969 130.53125 369.667969 131.519531 Z M 369.667969 131.519531 " fill-opacity="1" fill-rule="nonzero"/></g></svg>